<svg xmlns="http://www.w3.org/2000/svg" viewBox="0 0 1200 1200" width="1200" height="1200"><defs><linearGradient id="g" x1="0" y1="0" x2="0" y2="1"><stop offset="0" stop-color="#0B1B4D"/><stop offset="1" stop-color="#16409A"/></linearGradient><pattern id="p" width="83.14" height="144" patternUnits="userSpaceOnUse"><polygon points="0,0 -39.91,-23.04 0,-46.08 39.91,-23.04" fill="#FFFFFF" fill-opacity="0.08"/><polygon points="0,0 39.91,-23.04 39.91,23.04 0,46.08" fill="#FFFFFF" fill-opacity="0.13"/><polygon points="0,0 0,46.08 -39.91,23.04 -39.91,-23.04" fill="#FFFFFF" fill-opacity="0.15"/><polygon points="83.14,0 43.23,-23.04 83.14,-46.08 123.04,-23.04" fill="#FFFFFF" fill-opacity="0.08"/><polygon points="83.14,0 123.04,-23.04 123.04,23.04 83.14,46.08" fill="#FFFFFF" fill-opacity="0.13"/><polygon points="83.14,0 83.14,46.08 43.23,23.04 43.23,-23.04" fill="#FFFFFF" fill-opacity="0.15"/><polygon points="0,144 -39.91,120.96 0,97.92 39.91,120.96" fill="#FFFFFF" fill-opacity="0.08"/><polygon points="0,144 39.91,120.96 39.91,167.04 0,190.08" fill="#FFFFFF" fill-opacity="0.13"/><polygon points="0,144 0,190.08 -39.91,167.04 -39.91,120.96" fill="#FFFFFF" fill-opacity="0.15"/><polygon points="83.14,144 43.23,120.96 83.14,97.92 123.04,120.96" fill="#FFFFFF" fill-opacity="0.08"/><polygon points="83.14,144 123.04,120.96 123.04,167.04 83.14,190.08" fill="#FFFFFF" fill-opacity="0.13"/><polygon points="83.14,144 83.14,190.08 43.23,167.04 43.23,120.96" fill="#FFFFFF" fill-opacity="0.15"/><polygon points="41.57,72 1.66,48.96 41.57,25.92 81.48,48.96" fill="#FFFFFF" fill-opacity="0.08"/><polygon points="41.57,72 81.48,48.96 81.48,95.04 41.57,118.08" fill="#FFFFFF" fill-opacity="0.13"/><polygon points="41.57,72 41.57,118.08 1.66,95.04 1.66,48.96" fill="#FFFFFF" fill-opacity="0.15"/></pattern></defs><rect width="100%" height="100%" fill="url(#g)"/><rect width="100%" height="100%" fill="url(#p)"/></svg>