<svg xmlns="http://www.w3.org/2000/svg" viewBox="0 0 1200 1200" width="1200" height="1200"><defs><pattern id="p" width="193.99" height="336" patternUnits="userSpaceOnUse"><polygon points="0,0 -93.12,-53.76 0,-107.52 93.12,-53.76" fill="#E4D7B4" fill-opacity="0.55"/><polygon points="0,0 93.12,-53.76 93.12,53.76 0,107.52" fill="#E4D7B4" fill-opacity="0.85"/><polygon points="0,0 0,107.52 -93.12,53.76 -93.12,-53.76" fill="#E4D7B4" fill-opacity="1"/><polygon points="193.99,0 100.87,-53.76 193.99,-107.52 287.1,-53.76" fill="#E4D7B4" fill-opacity="0.55"/><polygon points="193.99,0 287.1,-53.76 287.1,53.76 193.99,107.52" fill="#E4D7B4" fill-opacity="0.85"/><polygon points="193.99,0 193.99,107.52 100.87,53.76 100.87,-53.76" fill="#E4D7B4" fill-opacity="1"/><polygon points="0,336 -93.12,282.24 0,228.48 93.12,282.24" fill="#E4D7B4" fill-opacity="0.55"/><polygon points="0,336 93.12,282.24 93.12,389.76 0,443.52" fill="#E4D7B4" fill-opacity="0.85"/><polygon points="0,336 0,443.52 -93.12,389.76 -93.12,282.24" fill="#E4D7B4" fill-opacity="1"/><polygon points="193.99,336 100.87,282.24 193.99,228.48 287.1,282.24" fill="#E4D7B4" fill-opacity="0.55"/><polygon points="193.99,336 287.1,282.24 287.1,389.76 193.99,443.52" fill="#E4D7B4" fill-opacity="0.85"/><polygon points="193.99,336 193.99,443.52 100.87,389.76 100.87,282.24" fill="#E4D7B4" fill-opacity="1"/><polygon points="96.99,168 3.88,114.24 96.99,60.48 190.11,114.24" fill="#E4D7B4" fill-opacity="0.55"/><polygon points="96.99,168 190.11,114.24 190.11,221.76 96.99,275.52" fill="#E4D7B4" fill-opacity="0.85"/><polygon points="96.99,168 96.99,275.52 3.88,221.76 3.88,114.24" fill="#E4D7B4" fill-opacity="1"/></pattern></defs><rect width="100%" height="100%" fill="#FAF6EC"/><rect width="100%" height="100%" fill="url(#p)"/></svg>