<svg xmlns="http://www.w3.org/2000/svg" viewBox="0 0 1200 1200" width="1200" height="1200"><defs><pattern id="p" width="145.49" height="252" patternUnits="userSpaceOnUse"><polygon points="0,0 -69.84,-40.32 0,-80.64 69.84,-40.32" fill="#D3D8E3" fill-opacity="0.55"/><polygon points="0,0 69.84,-40.32 69.84,40.32 0,80.64" fill="#D3D8E3" fill-opacity="0.85"/><polygon points="0,0 0,80.64 -69.84,40.32 -69.84,-40.32" fill="#D3D8E3" fill-opacity="1"/><polygon points="145.49,0 75.66,-40.32 145.49,-80.64 215.33,-40.32" fill="#D3D8E3" fill-opacity="0.55"/><polygon points="145.49,0 215.33,-40.32 215.33,40.32 145.49,80.64" fill="#D3D8E3" fill-opacity="0.85"/><polygon points="145.49,0 145.49,80.64 75.66,40.32 75.66,-40.32" fill="#D3D8E3" fill-opacity="1"/><polygon points="0,252 -69.84,211.68 0,171.36 69.84,211.68" fill="#D3D8E3" fill-opacity="0.55"/><polygon points="0,252 69.84,211.68 69.84,292.32 0,332.64" fill="#D3D8E3" fill-opacity="0.85"/><polygon points="0,252 0,332.64 -69.84,292.32 -69.84,211.68" fill="#D3D8E3" fill-opacity="1"/><polygon points="145.49,252 75.66,211.68 145.49,171.36 215.33,211.68" fill="#D3D8E3" fill-opacity="0.55"/><polygon points="145.49,252 215.33,211.68 215.33,292.32 145.49,332.64" fill="#D3D8E3" fill-opacity="0.85"/><polygon points="145.49,252 145.49,332.64 75.66,292.32 75.66,211.68" fill="#D3D8E3" fill-opacity="1"/><polygon points="72.75,126 2.91,85.68 72.75,45.36 142.58,85.68" fill="#D3D8E3" fill-opacity="0.55"/><polygon points="72.75,126 142.58,85.68 142.58,166.32 72.75,206.64" fill="#D3D8E3" fill-opacity="0.85"/><polygon points="72.75,126 72.75,206.64 2.91,166.32 2.91,85.68" fill="#D3D8E3" fill-opacity="1"/></pattern></defs><rect width="100%" height="100%" fill="#EEF0F4"/><rect width="100%" height="100%" fill="url(#p)"/></svg>