<svg xmlns="http://www.w3.org/2000/svg" viewBox="0 0 1200 1200" width="1200" height="1200"><defs><pattern id="p" width="128" height="128" patternUnits="userSpaceOnUse"><circle cx="0" cy="0" r="64" fill="#EEF0F4" fill-opacity="1" stroke="#D3D8E3" stroke-opacity="1.0" stroke-width="3.07"/><circle cx="0" cy="0" r="48.64" fill="#EEF0F4" fill-opacity="1" stroke="#D3D8E3" stroke-opacity="1.0" stroke-width="3.07"/><circle cx="0" cy="0" r="33.28" fill="#EEF0F4" fill-opacity="1" stroke="#D3D8E3" stroke-opacity="1.0" stroke-width="3.07"/><circle cx="0" cy="0" r="17.92" fill="#EEF0F4"/><circle cx="0" cy="0" r="17.92" fill="#003399" fill-opacity="0.28" stroke="#D3D8E3" stroke-opacity="1.0" stroke-width="3.07"/><circle cx="128" cy="0" r="64" fill="#EEF0F4" fill-opacity="1" stroke="#D3D8E3" stroke-opacity="1.0" stroke-width="3.07"/><circle cx="128" cy="0" r="48.64" fill="#EEF0F4" fill-opacity="1" stroke="#D3D8E3" stroke-opacity="1.0" stroke-width="3.07"/><circle cx="128" cy="0" r="33.28" fill="#EEF0F4" fill-opacity="1" stroke="#D3D8E3" stroke-opacity="1.0" stroke-width="3.07"/><circle cx="128" cy="0" r="17.92" fill="#EEF0F4"/><circle cx="128" cy="0" r="17.92" fill="#003399" fill-opacity="0.28" stroke="#D3D8E3" stroke-opacity="1.0" stroke-width="3.07"/><circle cx="64" cy="64" r="64" fill="#EEF0F4" fill-opacity="1" stroke="#D3D8E3" stroke-opacity="1.0" stroke-width="3.07"/><circle cx="64" cy="64" r="48.64" fill="#EEF0F4" fill-opacity="1" stroke="#D3D8E3" stroke-opacity="1.0" stroke-width="3.07"/><circle cx="64" cy="64" r="33.28" fill="#EEF0F4" fill-opacity="1" stroke="#D3D8E3" stroke-opacity="1.0" stroke-width="3.07"/><circle cx="64" cy="64" r="17.92" fill="#EEF0F4"/><circle cx="64" cy="64" r="17.92" fill="#003399" fill-opacity="0.28" stroke="#D3D8E3" stroke-opacity="1.0" stroke-width="3.07"/><circle cx="0" cy="128" r="64" fill="#EEF0F4" fill-opacity="1" stroke="#D3D8E3" stroke-opacity="1.0" stroke-width="3.07"/><circle cx="0" cy="128" r="48.64" fill="#EEF0F4" fill-opacity="1" stroke="#D3D8E3" stroke-opacity="1.0" stroke-width="3.07"/><circle cx="0" cy="128" r="33.28" fill="#EEF0F4" fill-opacity="1" stroke="#D3D8E3" stroke-opacity="1.0" stroke-width="3.07"/><circle cx="0" cy="128" r="17.92" fill="#EEF0F4"/><circle cx="0" cy="128" r="17.92" fill="#003399" fill-opacity="0.28" stroke="#D3D8E3" stroke-opacity="1.0" stroke-width="3.07"/><circle cx="128" cy="128" r="64" fill="#EEF0F4" fill-opacity="1" stroke="#D3D8E3" stroke-opacity="1.0" stroke-width="3.07"/><circle cx="128" cy="128" r="48.64" fill="#EEF0F4" fill-opacity="1" stroke="#D3D8E3" stroke-opacity="1.0" stroke-width="3.07"/><circle cx="128" cy="128" r="33.28" fill="#EEF0F4" fill-opacity="1" stroke="#D3D8E3" stroke-opacity="1.0" stroke-width="3.07"/><circle cx="128" cy="128" r="17.92" fill="#EEF0F4"/><circle cx="128" cy="128" r="17.92" fill="#003399" fill-opacity="0.28" stroke="#D3D8E3" stroke-opacity="1.0" stroke-width="3.07"/></pattern></defs><rect width="100%" height="100%" fill="#EEF0F4"/><rect width="100%" height="100%" fill="url(#p)"/></svg>