<svg xmlns="http://www.w3.org/2000/svg" viewBox="0 0 1200 1200" width="1200" height="1200"><defs><pattern id="p" width="168" height="168" patternUnits="userSpaceOnUse"><path d="M0 0L168 168M168 0L0 168" stroke="#EBCBA2" stroke-opacity="1.0" stroke-width="5.04" fill="none"/><circle cx="98.28" cy="84" r="8.4" fill="#EBCBA2" fill-opacity="1.0"/><circle cx="69.72" cy="84" r="8.4" fill="#EBCBA2" fill-opacity="1.0"/><circle cx="84" cy="98.28" r="8.4" fill="#EBCBA2" fill-opacity="1.0"/><circle cx="84" cy="69.72" r="8.4" fill="#EBCBA2" fill-opacity="1.0"/><circle cx="84" cy="84" r="6.72" fill="#7A3E8E" fill-opacity="0.7"/><circle cx="14.28" cy="0" r="8.4" fill="#EBCBA2" fill-opacity="1.0"/><circle cx="-14.28" cy="0" r="8.4" fill="#EBCBA2" fill-opacity="1.0"/><circle cx="0" cy="14.28" r="8.4" fill="#EBCBA2" fill-opacity="1.0"/><circle cx="0" cy="-14.28" r="8.4" fill="#EBCBA2" fill-opacity="1.0"/><circle cx="0" cy="0" r="6.72" fill="#7A3E8E" fill-opacity="0.7"/><circle cx="182.28" cy="0" r="8.4" fill="#EBCBA2" fill-opacity="1.0"/><circle cx="153.72" cy="0" r="8.4" fill="#EBCBA2" fill-opacity="1.0"/><circle cx="168" cy="14.28" r="8.4" fill="#EBCBA2" fill-opacity="1.0"/><circle cx="168" cy="-14.28" r="8.4" fill="#EBCBA2" fill-opacity="1.0"/><circle cx="168" cy="0" r="6.72" fill="#7A3E8E" fill-opacity="0.7"/><circle cx="14.28" cy="168" r="8.4" fill="#EBCBA2" fill-opacity="1.0"/><circle cx="-14.28" cy="168" r="8.4" fill="#EBCBA2" fill-opacity="1.0"/><circle cx="0" cy="182.28" r="8.4" fill="#EBCBA2" fill-opacity="1.0"/><circle cx="0" cy="153.72" r="8.4" fill="#EBCBA2" fill-opacity="1.0"/><circle cx="0" cy="168" r="6.72" fill="#7A3E8E" fill-opacity="0.7"/><circle cx="182.28" cy="168" r="8.4" fill="#EBCBA2" fill-opacity="1.0"/><circle cx="153.72" cy="168" r="8.4" fill="#EBCBA2" fill-opacity="1.0"/><circle cx="168" cy="182.28" r="8.4" fill="#EBCBA2" fill-opacity="1.0"/><circle cx="168" cy="153.72" r="8.4" fill="#EBCBA2" fill-opacity="1.0"/><circle cx="168" cy="168" r="6.72" fill="#7A3E8E" fill-opacity="0.7"/></pattern></defs><rect width="100%" height="100%" fill="#F8ECD8"/><rect width="100%" height="100%" fill="url(#p)"/></svg>