<svg xmlns="http://www.w3.org/2000/svg" viewBox="0 0 1200 1200" width="1200" height="1200"><defs><pattern id="p" width="224" height="224" patternUnits="userSpaceOnUse"><path d="M0 0L224 224M224 0L0 224" stroke="#D3D8E3" stroke-opacity="1.0" stroke-width="8.06" fill="none"/><circle cx="131.04" cy="112" r="11.2" fill="#D3D8E3" fill-opacity="1.0"/><circle cx="92.96" cy="112" r="11.2" fill="#D3D8E3" fill-opacity="1.0"/><circle cx="112" cy="131.04" r="11.2" fill="#D3D8E3" fill-opacity="1.0"/><circle cx="112" cy="92.96" r="11.2" fill="#D3D8E3" fill-opacity="1.0"/><circle cx="112" cy="112" r="8.96" fill="#003399" fill-opacity="0.7"/><circle cx="19.04" cy="0" r="11.2" fill="#D3D8E3" fill-opacity="1.0"/><circle cx="-19.04" cy="0" r="11.2" fill="#D3D8E3" fill-opacity="1.0"/><circle cx="0" cy="19.04" r="11.2" fill="#D3D8E3" fill-opacity="1.0"/><circle cx="0" cy="-19.04" r="11.2" fill="#D3D8E3" fill-opacity="1.0"/><circle cx="0" cy="0" r="8.96" fill="#003399" fill-opacity="0.7"/><circle cx="243.04" cy="0" r="11.2" fill="#D3D8E3" fill-opacity="1.0"/><circle cx="204.96" cy="0" r="11.2" fill="#D3D8E3" fill-opacity="1.0"/><circle cx="224" cy="19.04" r="11.2" fill="#D3D8E3" fill-opacity="1.0"/><circle cx="224" cy="-19.04" r="11.2" fill="#D3D8E3" fill-opacity="1.0"/><circle cx="224" cy="0" r="8.96" fill="#003399" fill-opacity="0.7"/><circle cx="19.04" cy="224" r="11.2" fill="#D3D8E3" fill-opacity="1.0"/><circle cx="-19.04" cy="224" r="11.2" fill="#D3D8E3" fill-opacity="1.0"/><circle cx="0" cy="243.04" r="11.2" fill="#D3D8E3" fill-opacity="1.0"/><circle cx="0" cy="204.96" r="11.2" fill="#D3D8E3" fill-opacity="1.0"/><circle cx="0" cy="224" r="8.96" fill="#003399" fill-opacity="0.7"/><circle cx="243.04" cy="224" r="11.2" fill="#D3D8E3" fill-opacity="1.0"/><circle cx="204.96" cy="224" r="11.2" fill="#D3D8E3" fill-opacity="1.0"/><circle cx="224" cy="243.04" r="11.2" fill="#D3D8E3" fill-opacity="1.0"/><circle cx="224" cy="204.96" r="11.2" fill="#D3D8E3" fill-opacity="1.0"/><circle cx="224" cy="224" r="8.96" fill="#003399" fill-opacity="0.7"/></pattern></defs><rect width="100%" height="100%" fill="#EEF0F4"/><rect width="100%" height="100%" fill="url(#p)"/></svg>