<svg xmlns="http://www.w3.org/2000/svg" viewBox="0 0 1200 1200" width="1200" height="1200"><defs><pattern id="p" width="128" height="128" patternUnits="userSpaceOnUse"><path d="M21.33 0A21.33 21.33 0 0 0 42.67 21.33M0 21.33A21.33 21.33 0 0 0 21.33 42.67" fill="none" stroke="#E4D7B4" stroke-opacity="1.0" stroke-width="9.81" stroke-linecap="butt"/><path d="M21.33 42.67A21.33 21.33 0 0 1 0 64M42.67 64A21.33 21.33 0 0 1 21.33 85.33" fill="none" stroke="#E4D7B4" stroke-opacity="1.0" stroke-width="9.81" stroke-linecap="butt"/><path d="M21.33 85.33A21.33 21.33 0 0 0 42.67 106.67M0 106.67A21.33 21.33 0 0 0 21.33 128" fill="none" stroke="#E4D7B4" stroke-opacity="1.0" stroke-width="9.81" stroke-linecap="butt"/><path d="M64 0A21.33 21.33 0 0 1 42.67 21.33M85.33 21.33A21.33 21.33 0 0 1 64 42.67" fill="none" stroke="#E4D7B4" stroke-opacity="1.0" stroke-width="9.81" stroke-linecap="butt"/><path d="M64 42.67A21.33 21.33 0 0 0 85.33 64M42.67 64A21.33 21.33 0 0 0 64 85.33" fill="none" stroke="#E4D7B4" stroke-opacity="1.0" stroke-width="9.81" stroke-linecap="butt"/><path d="M64 85.33A21.33 21.33 0 0 1 42.67 106.67M85.33 106.67A21.33 21.33 0 0 1 64 128" fill="none" stroke="#E4D7B4" stroke-opacity="1.0" stroke-width="9.81" stroke-linecap="butt"/><path d="M106.67 0A21.33 21.33 0 0 1 85.33 21.33M128 21.33A21.33 21.33 0 0 1 106.67 42.67" fill="none" stroke="#E4D7B4" stroke-opacity="1.0" stroke-width="9.81" stroke-linecap="butt"/><path d="M106.67 42.67A21.33 21.33 0 0 0 128 64M85.33 64A21.33 21.33 0 0 0 106.67 85.33" fill="none" stroke="#E4D7B4" stroke-opacity="1.0" stroke-width="9.81" stroke-linecap="butt"/><path d="M106.67 85.33A21.33 21.33 0 0 0 128 106.67M85.33 106.67A21.33 21.33 0 0 0 106.67 128" fill="none" stroke="#E4D7B4" stroke-opacity="1.0" stroke-width="9.81" stroke-linecap="butt"/></pattern></defs><rect width="100%" height="100%" fill="#FAF6EC"/><rect width="100%" height="100%" fill="url(#p)"/></svg>