<svg xmlns="http://www.w3.org/2000/svg" viewBox="0 0 1200 1200" width="1200" height="1200"><defs><linearGradient id="g" x1="0" y1="0" x2="0" y2="1"><stop offset="0" stop-color="#0B1B4D"/><stop offset="1" stop-color="#16409A"/></linearGradient><pattern id="p" width="224" height="224" patternUnits="userSpaceOnUse"><polygon points="112,0 224,112 112,224 0,112" fill="#FFFFFF" fill-opacity="0.08"/><polygon points="0,-112 112,0 0,112 -112,0" fill="#7EBAEE" fill-opacity="0.11"/><polygon points="224,-112 336,0 224,112 112,0" fill="#7EBAEE" fill-opacity="0.11"/><polygon points="0,112 112,224 0,336 -112,224" fill="#7EBAEE" fill-opacity="0.11"/><polygon points="224,112 336,224 224,336 112,224" fill="#7EBAEE" fill-opacity="0.11"/><path d="M0 0L224 224M224 0L0 224" stroke="#0B1B4D" stroke-opacity=".7" stroke-width="5.38" stroke-dasharray="8.96 11.2" fill="none"/></pattern></defs><rect width="100%" height="100%" fill="url(#g)"/><rect width="100%" height="100%" fill="url(#p)"/></svg>